<svg xmlns="http://www.w3.org/2000/svg" version="1.1" xmlns:xlink="http://www.w3.org/1999/xlink" xmlns:svgjs="http://svgjs.com/svgjs" width="1440" height="560" preserveAspectRatio="none" viewBox="0 0 1440 560"><g mask="url(&quot;#SvgjsMask1017&quot;)" fill="none"><rect width="1440" height="560" x="0" y="0" fill="#0e2a47"></rect><path d="M-71.93 411.37L-71.93 411.37" stroke="#132e65" stroke-width="1.5"></path><path d="M-71.93 411.37L-52.77 518.06" stroke="#132e65" stroke-width="1.5"></path><path d="M-71.93 411.37L95.93 339.53" stroke="#132e65" stroke-width="1.5"></path><path d="M-71.93 411.37L107.65 534.41" stroke="#132e65" stroke-width="1.5"></path><path d="M-71.93 411.37L-93.14 640.2" stroke="#132e65" stroke-width="1.5"></path><path d="M-71.93 411.37L187.76 384.56" stroke="#132e65" stroke-width="1.5"></path><path d="M-52.77 518.06L-52.77 518.06" stroke="#132e65" stroke-width="1.5"></path><path d="M-52.77 518.06L-93.14 640.2" stroke="#132e65" stroke-width="1.5"></path><path d="M-52.77 518.06L107.65 534.41" stroke="#132e65" stroke-width="1.5"></path><path d="M-52.77 518.06L38.98 679.22" stroke="#132e65" stroke-width="1.5"></path><path d="M-52.77 518.06L95.93 339.53" stroke="#132e65" stroke-width="1.5"></path><path d="M-93.14 640.2L-93.14 640.2" stroke="#132e65" stroke-width="1.5"></path><path d="M95.93 339.53L95.93 339.53" stroke="#132e65" stroke-width="1.5"></path><path d="M95.93 339.53L187.76 384.56" stroke="#132e65" stroke-width="1.5"></path><path d="M95.93 339.53L107.65 534.41" stroke="#132e65" stroke-width="1.5"></path><path d="M107.65 534.41L107.65 534.41" stroke="#132e65" stroke-width="1.5"></path><path d="M107.65 534.41L260.44 561.31" stroke="#132e65" stroke-width="1.5"></path><path d="M107.65 534.41L38.98 679.22" stroke="#132e65" stroke-width="1.5"></path><path d="M107.65 534.41L187.76 384.56" stroke="#132e65" stroke-width="1.5"></path><path d="M107.65 534.41L211.67 672.37" stroke="#132e65" stroke-width="1.5"></path><path d="M38.98 679.22L38.98 679.22" stroke="#132e65" stroke-width="1.5"></path><path d="M38.98 679.22L-93.14 640.2" stroke="#132e65" stroke-width="1.5"></path><path d="M187.76 384.56L187.76 384.56" stroke="#132e65" stroke-width="1.5"></path><path d="M187.76 384.56L260.44 561.31" stroke="#132e65" stroke-width="1.5"></path><path d="M187.76 384.56L390.98 339.02" stroke="#132e65" stroke-width="1.5"></path><path d="M187.76 384.56L378.17 548.87" stroke="#132e65" stroke-width="1.5"></path><path d="M260.44 561.31L260.44 561.31" stroke="#132e65" stroke-width="1.5"></path><path d="M260.44 561.31L378.17 548.87" stroke="#132e65" stroke-width="1.5"></path><path d="M260.44 561.31L211.67 672.37" stroke="#132e65" stroke-width="1.5"></path><path d="M260.44 561.31L376.79 638.02" stroke="#132e65" stroke-width="1.5"></path><path d="M211.67 672.37L211.67 672.37" stroke="#132e65" stroke-width="1.5"></path><path d="M211.67 672.37L376.79 638.02" stroke="#132e65" stroke-width="1.5"></path><path d="M211.67 672.37L38.98 679.22" stroke="#132e65" stroke-width="1.5"></path><path d="M211.67 672.37L378.17 548.87" stroke="#132e65" stroke-width="1.5"></path><path d="M211.67 672.37L498.09 673.53" stroke="#132e65" stroke-width="1.5"></path><path d="M390.98 339.02L390.98 339.02" stroke="#132e65" stroke-width="1.5"></path><path d="M390.98 339.02L538.12 403.79" stroke="#132e65" stroke-width="1.5"></path><path d="M390.98 339.02L378.17 548.87" stroke="#132e65" stroke-width="1.5"></path><path d="M390.98 339.02L543.11 505.6" stroke="#132e65" stroke-width="1.5"></path><path d="M390.98 339.02L260.44 561.31" stroke="#132e65" stroke-width="1.5"></path><path d="M378.17 548.87L378.17 548.87" stroke="#132e65" stroke-width="1.5"></path><path d="M378.17 548.87L376.79 638.02" stroke="#132e65" stroke-width="1.5"></path><path d="M376.79 638.02L376.79 638.02" stroke="#132e65" stroke-width="1.5"></path><path d="M376.79 638.02L498.09 673.53" stroke="#132e65" stroke-width="1.5"></path><path d="M538.12 403.79L538.12 403.79" stroke="#132e65" stroke-width="1.5"></path><path d="M538.12 403.79L543.11 505.6" stroke="#132e65" stroke-width="1.5"></path><path d="M538.12 403.79L657.56 341.2" stroke="#132e65" stroke-width="1.5"></path><path d="M538.12 403.79L640.24 507.83" stroke="#132e65" stroke-width="1.5"></path><path d="M538.12 403.79L378.17 548.87" stroke="#132e65" stroke-width="1.5"></path><path d="M543.11 505.6L543.11 505.6" stroke="#132e65" stroke-width="1.5"></path><path d="M543.11 505.6L640.24 507.83" stroke="#132e65" stroke-width="1.5"></path><path d="M543.11 505.6L378.17 548.87" stroke="#132e65" stroke-width="1.5"></path><path d="M498.09 673.53L498.09 673.53" stroke="#132e65" stroke-width="1.5"></path><path d="M498.09 673.53L665.17 704.52" stroke="#132e65" stroke-width="1.5"></path><path d="M498.09 673.53L378.17 548.87" stroke="#132e65" stroke-width="1.5"></path><path d="M498.09 673.53L543.11 505.6" stroke="#132e65" stroke-width="1.5"></path><path d="M498.09 673.53L640.24 507.83" stroke="#132e65" stroke-width="1.5"></path><path d="M498.09 673.53L260.44 561.31" stroke="#132e65" stroke-width="1.5"></path><path d="M700.56 234.8L700.56 234.8" stroke="#132e65" stroke-width="1.5"></path><path d="M700.56 234.8L657.56 341.2" stroke="#132e65" stroke-width="1.5"></path><path d="M700.56 234.8L823.99 197.28" stroke="#132e65" stroke-width="1.5"></path><path d="M700.56 234.8L848.71 412.13" stroke="#132e65" stroke-width="1.5"></path><path d="M700.56 234.8L538.12 403.79" stroke="#132e65" stroke-width="1.5"></path><path d="M657.56 341.2L657.56 341.2" stroke="#132e65" stroke-width="1.5"></path><path d="M640.24 507.83L640.24 507.83" stroke="#132e65" stroke-width="1.5"></path><path d="M640.24 507.83L657.56 341.2" stroke="#132e65" stroke-width="1.5"></path><path d="M665.17 704.52L665.17 704.52" stroke="#132e65" stroke-width="1.5"></path><path d="M665.17 704.52L860.85 705.48" stroke="#132e65" stroke-width="1.5"></path><path d="M665.17 704.52L640.24 507.83" stroke="#132e65" stroke-width="1.5"></path><path d="M823.99 197.28L823.99 197.28" stroke="#132e65" stroke-width="1.5"></path><path d="M823.99 197.28L984.38 209.94" stroke="#132e65" stroke-width="1.5"></path><path d="M823.99 197.28L971.61 77.73" stroke="#132e65" stroke-width="1.5"></path><path d="M823.99 197.28L848.71 412.13" stroke="#132e65" stroke-width="1.5"></path><path d="M823.99 197.28L657.56 341.2" stroke="#132e65" stroke-width="1.5"></path><path d="M848.71 412.13L848.71 412.13" stroke="#132e65" stroke-width="1.5"></path><path d="M848.71 412.13L830.47 528.42" stroke="#132e65" stroke-width="1.5"></path><path d="M848.71 412.13L970.7 381.56" stroke="#132e65" stroke-width="1.5"></path><path d="M848.71 412.13L657.56 341.2" stroke="#132e65" stroke-width="1.5"></path><path d="M848.71 412.13L640.24 507.83" stroke="#132e65" stroke-width="1.5"></path><path d="M830.47 528.42L830.47 528.42" stroke="#132e65" stroke-width="1.5"></path><path d="M830.47 528.42L960.12 648.26" stroke="#132e65" stroke-width="1.5"></path><path d="M830.47 528.42L860.85 705.48" stroke="#132e65" stroke-width="1.5"></path><path d="M860.85 705.48L860.85 705.48" stroke="#132e65" stroke-width="1.5"></path><path d="M860.85 705.48L960.12 648.26" stroke="#132e65" stroke-width="1.5"></path><path d="M987.42 -38.07L987.42 -38.07" stroke="#132e65" stroke-width="1.5"></path><path d="M987.42 -38.07L971.61 77.73" stroke="#132e65" stroke-width="1.5"></path><path d="M987.42 -38.07L1151.28 -94.64" stroke="#132e65" stroke-width="1.5"></path><path d="M987.42 -38.07L984.38 209.94" stroke="#132e65" stroke-width="1.5"></path><path d="M987.42 -38.07L1260.04 -42.71" stroke="#132e65" stroke-width="1.5"></path><path d="M987.42 -38.07L823.99 197.28" stroke="#132e65" stroke-width="1.5"></path><path d="M971.61 77.73L971.61 77.73" stroke="#132e65" stroke-width="1.5"></path><path d="M971.61 77.73L984.38 209.94" stroke="#132e65" stroke-width="1.5"></path><path d="M971.61 77.73L1102.81 228.16" stroke="#132e65" stroke-width="1.5"></path><path d="M984.38 209.94L984.38 209.94" stroke="#132e65" stroke-width="1.5"></path><path d="M984.38 209.94L1102.81 228.16" stroke="#132e65" stroke-width="1.5"></path><path d="M984.38 209.94L970.7 381.56" stroke="#132e65" stroke-width="1.5"></path><path d="M984.38 209.94L1118.76 340.1" stroke="#132e65" stroke-width="1.5"></path><path d="M970.7 381.56L970.7 381.56" stroke="#132e65" stroke-width="1.5"></path><path d="M970.7 381.56L1118.76 340.1" stroke="#132e65" stroke-width="1.5"></path><path d="M970.7 381.56L1102.81 228.16" stroke="#132e65" stroke-width="1.5"></path><path d="M970.7 381.56L830.47 528.42" stroke="#132e65" stroke-width="1.5"></path><path d="M960.12 648.26L960.12 648.26" stroke="#132e65" stroke-width="1.5"></path><path d="M960.12 648.26L1090.15 708.91" stroke="#132e65" stroke-width="1.5"></path><path d="M1151.28 -94.64L1151.28 -94.64" stroke="#132e65" stroke-width="1.5"></path><path d="M1151.28 -94.64L1260.04 -42.71" stroke="#132e65" stroke-width="1.5"></path><path d="M1102.81 228.16L1102.81 228.16" stroke="#132e65" stroke-width="1.5"></path><path d="M1102.81 228.16L1118.76 340.1" stroke="#132e65" stroke-width="1.5"></path><path d="M1118.76 340.1L1118.76 340.1" stroke="#132e65" stroke-width="1.5"></path><path d="M1118.76 340.1L1249.59 402.27" stroke="#132e65" stroke-width="1.5"></path><path d="M1090.15 708.91L1090.15 708.91" stroke="#132e65" stroke-width="1.5"></path><path d="M1090.15 708.91L860.85 705.48" stroke="#132e65" stroke-width="1.5"></path><path d="M1090.15 708.91L1297.75 531.54" stroke="#132e65" stroke-width="1.5"></path><path d="M1090.15 708.91L830.47 528.42" stroke="#132e65" stroke-width="1.5"></path><path d="M1090.15 708.91L1249.59 402.27" stroke="#132e65" stroke-width="1.5"></path><path d="M1260.04 -42.71L1260.04 -42.71" stroke="#132e65" stroke-width="1.5"></path><path d="M1260.04 -42.71L1307.82 62.36" stroke="#132e65" stroke-width="1.5"></path><path d="M1260.04 -42.71L1410.28 -80.43" stroke="#132e65" stroke-width="1.5"></path><path d="M1260.04 -42.71L1452.69 62.93" stroke="#132e65" stroke-width="1.5"></path><path d="M1307.82 62.36L1307.82 62.36" stroke="#132e65" stroke-width="1.5"></path><path d="M1293.18 249.57L1293.18 249.57" stroke="#132e65" stroke-width="1.5"></path><path d="M1293.18 249.57L1249.59 402.27" stroke="#132e65" stroke-width="1.5"></path><path d="M1293.18 249.57L1459.95 245.17" stroke="#132e65" stroke-width="1.5"></path><path d="M1293.18 249.57L1405.74 385.4" stroke="#132e65" stroke-width="1.5"></path><path d="M1293.18 249.57L1307.82 62.36" stroke="#132e65" stroke-width="1.5"></path><path d="M1293.18 249.57L1102.81 228.16" stroke="#132e65" stroke-width="1.5"></path><path d="M1249.59 402.27L1249.59 402.27" stroke="#132e65" stroke-width="1.5"></path><path d="M1249.59 402.27L1297.75 531.54" stroke="#132e65" stroke-width="1.5"></path><path d="M1249.59 402.27L1405.74 385.4" stroke="#132e65" stroke-width="1.5"></path><path d="M1249.59 402.27L1102.81 228.16" stroke="#132e65" stroke-width="1.5"></path><path d="M1297.75 531.54L1297.75 531.54" stroke="#132e65" stroke-width="1.5"></path><path d="M1297.75 531.54L1453.83 527.86" stroke="#132e65" stroke-width="1.5"></path><path d="M1410.28 -80.43L1410.28 -80.43" stroke="#132e65" stroke-width="1.5"></path><path d="M1410.28 -80.43L1452.69 62.93" stroke="#132e65" stroke-width="1.5"></path><path d="M1410.28 -80.43L1307.82 62.36" stroke="#132e65" stroke-width="1.5"></path><path d="M1452.69 62.93L1452.69 62.93" stroke="#132e65" stroke-width="1.5"></path><path d="M1452.69 62.93L1592.47 40.71" stroke="#132e65" stroke-width="1.5"></path><path d="M1452.69 62.93L1307.82 62.36" stroke="#132e65" stroke-width="1.5"></path><path d="M1459.95 245.17L1459.95 245.17" stroke="#132e65" stroke-width="1.5"></path><path d="M1459.95 245.17L1574.99 194.95" stroke="#132e65" stroke-width="1.5"></path><path d="M1459.95 245.17L1405.74 385.4" stroke="#132e65" stroke-width="1.5"></path><path d="M1459.95 245.17L1567.59 391.53" stroke="#132e65" stroke-width="1.5"></path><path d="M1459.95 245.17L1452.69 62.93" stroke="#132e65" stroke-width="1.5"></path><path d="M1405.74 385.4L1405.74 385.4" stroke="#132e65" stroke-width="1.5"></path><path d="M1405.74 385.4L1453.83 527.86" stroke="#132e65" stroke-width="1.5"></path><path d="M1405.74 385.4L1567.59 391.53" stroke="#132e65" stroke-width="1.5"></path><path d="M1453.83 527.86L1453.83 527.86" stroke="#132e65" stroke-width="1.5"></path><path d="M1453.83 527.86L1556.88 508.44" stroke="#132e65" stroke-width="1.5"></path><path d="M1456.06 652.67L1456.06 652.67" stroke="#132e65" stroke-width="1.5"></path><path d="M1456.06 652.67L1573.24 659.88" stroke="#132e65" stroke-width="1.5"></path><path d="M1456.06 652.67L1453.83 527.86" stroke="#132e65" stroke-width="1.5"></path><path d="M1456.06 652.67L1556.88 508.44" stroke="#132e65" stroke-width="1.5"></path><path d="M1456.06 652.67L1297.75 531.54" stroke="#132e65" stroke-width="1.5"></path><path d="M1456.06 652.67L1405.74 385.4" stroke="#132e65" stroke-width="1.5"></path><path d="M1456.06 652.67L1567.59 391.53" stroke="#132e65" stroke-width="1.5"></path><path d="M1596.14 -67.72L1596.14 -67.72" stroke="#132e65" stroke-width="1.5"></path><path d="M1596.14 -67.72L1592.47 40.71" stroke="#132e65" stroke-width="1.5"></path><path d="M1596.14 -67.72L1410.28 -80.43" stroke="#132e65" stroke-width="1.5"></path><path d="M1596.14 -67.72L1452.69 62.93" stroke="#132e65" stroke-width="1.5"></path><path d="M1596.14 -67.72L1574.99 194.95" stroke="#132e65" stroke-width="1.5"></path><path d="M1596.14 -67.72L1307.82 62.36" stroke="#132e65" stroke-width="1.5"></path><path d="M1592.47 40.71L1592.47 40.71" stroke="#132e65" stroke-width="1.5"></path><path d="M1574.99 194.95L1574.99 194.95" stroke="#132e65" stroke-width="1.5"></path><path d="M1574.99 194.95L1592.47 40.71" stroke="#132e65" stroke-width="1.5"></path><path d="M1574.99 194.95L1452.69 62.93" stroke="#132e65" stroke-width="1.5"></path><path d="M1574.99 194.95L1567.59 391.53" stroke="#132e65" stroke-width="1.5"></path><path d="M1567.59 391.53L1567.59 391.53" stroke="#132e65" stroke-width="1.5"></path><path d="M1567.59 391.53L1556.88 508.44" stroke="#132e65" stroke-width="1.5"></path><path d="M1567.59 391.53L1453.83 527.86" stroke="#132e65" stroke-width="1.5"></path><path d="M1567.59 391.53L1573.24 659.88" stroke="#132e65" stroke-width="1.5"></path><path d="M1556.88 508.44L1556.88 508.44" stroke="#132e65" stroke-width="1.5"></path><path d="M1573.24 659.88L1573.24 659.88" stroke="#132e65" stroke-width="1.5"></path><path d="M1573.24 659.88L1556.88 508.44" stroke="#132e65" stroke-width="1.5"></path><path d="M1573.24 659.88L1453.83 527.86" stroke="#132e65" stroke-width="1.5"></path><circle r="5" cx="-71.93" cy="411.37" fill="#132e65"></circle><circle r="5" cx="-52.77" cy="518.06" fill="#132e65"></circle><circle r="5" cx="-93.14" cy="640.2" fill="#132e65"></circle><circle r="5" cx="95.93" cy="339.53" fill="#132e65"></circle><circle r="5" cx="107.65" cy="534.41" fill="#132e65"></circle><circle r="5" cx="38.98" cy="679.22" fill="#132e65"></circle><circle r="5" cx="187.76" cy="384.56" fill="#132e65"></circle><circle r="5" cx="260.44" cy="561.31" fill="#132e65"></circle><circle r="5" cx="211.67" cy="672.37" fill="#132e65"></circle><circle r="5" cx="390.98" cy="339.02" fill="#132e65"></circle><circle r="5" cx="378.17" cy="548.87" fill="#132e65"></circle><circle r="5" cx="376.79" cy="638.02" fill="#132e65"></circle><circle r="5" cx="538.12" cy="403.79" fill="#132e65"></circle><circle r="5" cx="543.11" cy="505.6" fill="#132e65"></circle><circle r="5" cx="498.09" cy="673.53" fill="#132e65"></circle><circle r="5" cx="700.56" cy="234.8" fill="#132e65"></circle><circle r="5" cx="657.56" cy="341.2" fill="#132e65"></circle><circle r="5" cx="640.24" cy="507.83" fill="#132e65"></circle><circle r="5" cx="665.17" cy="704.52" fill="#132e65"></circle><circle r="5" cx="823.99" cy="197.28" fill="#132e65"></circle><circle r="5" cx="848.71" cy="412.13" fill="#132e65"></circle><circle r="5" cx="830.47" cy="528.42" fill="#132e65"></circle><circle r="5" cx="860.85" cy="705.48" fill="#132e65"></circle><circle r="5" cx="987.42" cy="-38.07" fill="#132e65"></circle><circle r="5" cx="971.61" cy="77.73" fill="#132e65"></circle><circle r="5" cx="984.38" cy="209.94" fill="#132e65"></circle><circle r="5" cx="970.7" cy="381.56" fill="#132e65"></circle><circle r="5" cx="960.12" cy="648.26" fill="#132e65"></circle><circle r="5" cx="1151.28" cy="-94.64" fill="#132e65"></circle><circle r="5" cx="1102.81" cy="228.16" fill="#132e65"></circle><circle r="5" cx="1118.76" cy="340.1" fill="#132e65"></circle><circle r="5" cx="1090.15" cy="708.91" fill="#132e65"></circle><circle r="5" cx="1260.04" cy="-42.71" fill="#132e65"></circle><circle r="5" cx="1307.82" cy="62.36" fill="#132e65"></circle><circle r="5" cx="1293.18" cy="249.57" fill="#132e65"></circle><circle r="5" cx="1249.59" cy="402.27" fill="#132e65"></circle><circle r="5" cx="1297.75" cy="531.54" fill="#132e65"></circle><circle r="5" cx="1410.28" cy="-80.43" fill="#132e65"></circle><circle r="5" cx="1452.69" cy="62.93" fill="#132e65"></circle><circle r="5" cx="1459.95" cy="245.17" fill="#132e65"></circle><circle r="5" cx="1405.74" cy="385.4" fill="#132e65"></circle><circle r="5" cx="1453.83" cy="527.86" fill="#132e65"></circle><circle r="5" cx="1456.06" cy="652.67" fill="#132e65"></circle><circle r="5" cx="1596.14" cy="-67.72" fill="#132e65"></circle><circle r="5" cx="1592.47" cy="40.71" fill="#132e65"></circle><circle r="5" cx="1574.99" cy="194.95" fill="#132e65"></circle><circle r="5" cx="1567.59" cy="391.53" fill="#132e65"></circle><circle r="5" cx="1556.88" cy="508.44" fill="#132e65"></circle><circle r="5" cx="1573.24" cy="659.88" fill="#132e65"></circle><path d="M38.47 648.06L38.47 648.06" stroke="hsl(228.29999999999995, 20%, 71.4%)" stroke-width="1.5"></path><path d="M38.47 648.06L-59.48 673.53" stroke="hsl(228.29999999999995, 20%, 71.4%)" stroke-width="1.5"></path><path d="M38.47 648.06L96.65 523.07" stroke="hsl(228.29999999999995, 20%, 71.4%)" stroke-width="1.5"></path><path d="M38.47 648.06L237.67 687.71" stroke="hsl(228.29999999999995, 20%, 71.4%)" stroke-width="1.5"></path><path d="M38.47 648.06L-110.71 503.31" stroke="hsl(228.29999999999995, 20%, 71.4%)" stroke-width="1.5"></path><path d="M38.47 648.06L226.3 515.99" stroke="hsl(228.29999999999995, 20%, 71.4%)" stroke-width="1.5"></path><path d="M38.47 648.06L406.47 648.35" stroke="hsl(228.29999999999995, 20%, 71.4%)" stroke-width="1.5"></path><path d="M406.47 648.35L406.47 648.35" stroke="hsl(228.29999999999995, 20%, 71.4%)" stroke-width="1.5"></path><path d="M406.47 648.35L526.22 669.08" stroke="hsl(228.29999999999995, 20%, 71.4%)" stroke-width="1.5"></path><path d="M406.47 648.35L386.67 490.05" stroke="hsl(228.29999999999995, 20%, 71.4%)" stroke-width="1.5"></path><path d="M1107.79 400.32L1107.79 400.32" stroke="hsl(228.29999999999995, 20%, 71.4%)" stroke-width="1.5"></path><path d="M1107.79 400.32L1151.36 513.22" stroke="hsl(228.29999999999995, 20%, 71.4%)" stroke-width="1.5"></path><path d="M1107.79 400.32L980.3 397.88" stroke="hsl(228.29999999999995, 20%, 71.4%)" stroke-width="1.5"></path><path d="M1107.79 400.32L1272.81 376.64" stroke="hsl(228.29999999999995, 20%, 71.4%)" stroke-width="1.5"></path><path d="M1107.79 400.32L1087.6 227.5" stroke="hsl(228.29999999999995, 20%, 71.4%)" stroke-width="1.5"></path><path d="M1107.79 400.32L989.13 533.99" stroke="hsl(228.29999999999995, 20%, 71.4%)" stroke-width="1.5"></path><path d="M1107.79 400.32L1300.67 529.52" stroke="hsl(228.29999999999995, 20%, 71.4%)" stroke-width="1.5"></path><path d="M1545.08 58.14L1545.08 58.14" stroke="hsl(228.29999999999995, 20%, 71.4%)" stroke-width="1.5"></path><path d="M1545.08 58.14L1405.72 93.75" stroke="hsl(228.29999999999995, 20%, 71.4%)" stroke-width="1.5"></path><path d="M1545.08 58.14L1568.92 -106.94" stroke="hsl(228.29999999999995, 20%, 71.4%)" stroke-width="1.5"></path><path d="M1555.87 258.85L1555.87 258.85" stroke="hsl(228.29999999999995, 20%, 71.4%)" stroke-width="1.5"></path><path d="M1555.87 258.85L1419.88 248.13" stroke="hsl(228.29999999999995, 20%, 71.4%)" stroke-width="1.5"></path><path d="M1555.87 258.85L1424.72 350.14" stroke="hsl(228.29999999999995, 20%, 71.4%)" stroke-width="1.5"></path><path d="M1555.87 258.85L1545.08 58.14" stroke="hsl(228.29999999999995, 20%, 71.4%)" stroke-width="1.5"></path><path d="M1555.87 258.85L1405.72 93.75" stroke="hsl(228.29999999999995, 20%, 71.4%)" stroke-width="1.5"></path><path d="M1555.87 258.85L1272.81 376.64" stroke="hsl(228.29999999999995, 20%, 71.4%)" stroke-width="1.5"></path><path d="M1555.87 258.85L1241.23 195.5" stroke="hsl(228.29999999999995, 20%, 71.4%)" stroke-width="1.5"></path><path d="M-110.71 503.31L-110.71 503.31" stroke="hsl(228.29999999999995, 20%, 71.4%)" stroke-width="1.5"></path><path d="M-110.71 503.31L-59.48 673.53" stroke="hsl(228.29999999999995, 20%, 71.4%)" stroke-width="1.5"></path><path d="M-59.48 673.53L-59.48 673.53" stroke="hsl(228.29999999999995, 20%, 71.4%)" stroke-width="1.5"></path><path d="M-59.48 673.53L96.65 523.07" stroke="hsl(228.29999999999995, 20%, 71.4%)" stroke-width="1.5"></path><path d="M-59.48 673.53L237.67 687.71" stroke="hsl(228.29999999999995, 20%, 71.4%)" stroke-width="1.5"></path><path d="M96.65 523.07L96.65 523.07" stroke="hsl(228.29999999999995, 20%, 71.4%)" stroke-width="1.5"></path><path d="M96.65 523.07L226.3 515.99" stroke="hsl(228.29999999999995, 20%, 71.4%)" stroke-width="1.5"></path><path d="M96.65 523.07L-110.71 503.31" stroke="hsl(228.29999999999995, 20%, 71.4%)" stroke-width="1.5"></path><path d="M96.65 523.07L237.67 687.71" stroke="hsl(228.29999999999995, 20%, 71.4%)" stroke-width="1.5"></path><path d="M226.3 515.99L226.3 515.99" stroke="hsl(228.29999999999995, 20%, 71.4%)" stroke-width="1.5"></path><path d="M226.3 515.99L386.67 490.05" stroke="hsl(228.29999999999995, 20%, 71.4%)" stroke-width="1.5"></path><path d="M226.3 515.99L237.67 687.71" stroke="hsl(228.29999999999995, 20%, 71.4%)" stroke-width="1.5"></path><path d="M226.3 515.99L406.47 648.35" stroke="hsl(228.29999999999995, 20%, 71.4%)" stroke-width="1.5"></path><path d="M237.67 687.71L237.67 687.71" stroke="hsl(228.29999999999995, 20%, 71.4%)" stroke-width="1.5"></path><path d="M237.67 687.71L406.47 648.35" stroke="hsl(228.29999999999995, 20%, 71.4%)" stroke-width="1.5"></path><path d="M386.67 490.05L386.67 490.05" stroke="hsl(228.29999999999995, 20%, 71.4%)" stroke-width="1.5"></path><path d="M386.67 490.05L543.07 534.68" stroke="hsl(228.29999999999995, 20%, 71.4%)" stroke-width="1.5"></path><path d="M386.67 490.05L526.22 669.08" stroke="hsl(228.29999999999995, 20%, 71.4%)" stroke-width="1.5"></path><path d="M543.07 534.68L543.07 534.68" stroke="hsl(228.29999999999995, 20%, 71.4%)" stroke-width="1.5"></path><path d="M543.07 534.68L526.22 669.08" stroke="hsl(228.29999999999995, 20%, 71.4%)" stroke-width="1.5"></path><path d="M543.07 534.68L694.3 489.86" stroke="hsl(228.29999999999995, 20%, 71.4%)" stroke-width="1.5"></path><path d="M526.22 669.08L526.22 669.08" stroke="hsl(228.29999999999995, 20%, 71.4%)" stroke-width="1.5"></path><path d="M526.22 669.08L673.04 661.49" stroke="hsl(228.29999999999995, 20%, 71.4%)" stroke-width="1.5"></path><path d="M526.22 669.08L694.3 489.86" stroke="hsl(228.29999999999995, 20%, 71.4%)" stroke-width="1.5"></path><path d="M526.22 669.08L237.67 687.71" stroke="hsl(228.29999999999995, 20%, 71.4%)" stroke-width="1.5"></path><path d="M692.48 362.7L692.48 362.7" stroke="hsl(228.29999999999995, 20%, 71.4%)" stroke-width="1.5"></path><path d="M692.48 362.7L792.54 344.05" stroke="hsl(228.29999999999995, 20%, 71.4%)" stroke-width="1.5"></path><path d="M692.48 362.7L694.3 489.86" stroke="hsl(228.29999999999995, 20%, 71.4%)" stroke-width="1.5"></path><path d="M692.48 362.7L543.07 534.68" stroke="hsl(228.29999999999995, 20%, 71.4%)" stroke-width="1.5"></path><path d="M692.48 362.7L980.3 397.88" stroke="hsl(228.29999999999995, 20%, 71.4%)" stroke-width="1.5"></path><path d="M694.3 489.86L694.3 489.86" stroke="hsl(228.29999999999995, 20%, 71.4%)" stroke-width="1.5"></path><path d="M694.3 489.86L673.04 661.49" stroke="hsl(228.29999999999995, 20%, 71.4%)" stroke-width="1.5"></path><path d="M694.3 489.86L792.54 344.05" stroke="hsl(228.29999999999995, 20%, 71.4%)" stroke-width="1.5"></path><path d="M673.04 661.49L673.04 661.49" stroke="hsl(228.29999999999995, 20%, 71.4%)" stroke-width="1.5"></path><path d="M792.54 344.05L792.54 344.05" stroke="hsl(228.29999999999995, 20%, 71.4%)" stroke-width="1.5"></path><path d="M848.29 638.52L848.29 638.52" stroke="hsl(228.29999999999995, 20%, 71.4%)" stroke-width="1.5"></path><path d="M848.29 638.52L1008.76 699.94" stroke="hsl(228.29999999999995, 20%, 71.4%)" stroke-width="1.5"></path><path d="M848.29 638.52L989.13 533.99" stroke="hsl(228.29999999999995, 20%, 71.4%)" stroke-width="1.5"></path><path d="M848.29 638.52L673.04 661.49" stroke="hsl(228.29999999999995, 20%, 71.4%)" stroke-width="1.5"></path><path d="M848.29 638.52L694.3 489.86" stroke="hsl(228.29999999999995, 20%, 71.4%)" stroke-width="1.5"></path><path d="M848.29 638.52L1094.29 693.63" stroke="hsl(228.29999999999995, 20%, 71.4%)" stroke-width="1.5"></path><path d="M848.29 638.52L980.3 397.88" stroke="hsl(228.29999999999995, 20%, 71.4%)" stroke-width="1.5"></path><path d="M980.3 397.88L980.3 397.88" stroke="hsl(228.29999999999995, 20%, 71.4%)" stroke-width="1.5"></path><path d="M980.3 397.88L989.13 533.99" stroke="hsl(228.29999999999995, 20%, 71.4%)" stroke-width="1.5"></path><path d="M980.3 397.88L792.54 344.05" stroke="hsl(228.29999999999995, 20%, 71.4%)" stroke-width="1.5"></path><path d="M980.3 397.88L1087.6 227.5" stroke="hsl(228.29999999999995, 20%, 71.4%)" stroke-width="1.5"></path><path d="M980.3 397.88L1151.36 513.22" stroke="hsl(228.29999999999995, 20%, 71.4%)" stroke-width="1.5"></path><path d="M989.13 533.99L989.13 533.99" stroke="hsl(228.29999999999995, 20%, 71.4%)" stroke-width="1.5"></path><path d="M989.13 533.99L1151.36 513.22" stroke="hsl(228.29999999999995, 20%, 71.4%)" stroke-width="1.5"></path><path d="M989.13 533.99L1008.76 699.94" stroke="hsl(228.29999999999995, 20%, 71.4%)" stroke-width="1.5"></path><path d="M1008.76 699.94L1008.76 699.94" stroke="hsl(228.29999999999995, 20%, 71.4%)" stroke-width="1.5"></path><path d="M1008.76 699.94L1094.29 693.63" stroke="hsl(228.29999999999995, 20%, 71.4%)" stroke-width="1.5"></path><path d="M1008.76 699.94L1151.36 513.22" stroke="hsl(228.29999999999995, 20%, 71.4%)" stroke-width="1.5"></path><path d="M1087.6 227.5L1087.6 227.5" stroke="hsl(228.29999999999995, 20%, 71.4%)" stroke-width="1.5"></path><path d="M1087.6 227.5L1241.23 195.5" stroke="hsl(228.29999999999995, 20%, 71.4%)" stroke-width="1.5"></path><path d="M1087.6 227.5L1241.68 111.16" stroke="hsl(228.29999999999995, 20%, 71.4%)" stroke-width="1.5"></path><path d="M1087.6 227.5L1272.81 376.64" stroke="hsl(228.29999999999995, 20%, 71.4%)" stroke-width="1.5"></path><path d="M1151.36 513.22L1151.36 513.22" stroke="hsl(228.29999999999995, 20%, 71.4%)" stroke-width="1.5"></path><path d="M1151.36 513.22L1300.67 529.52" stroke="hsl(228.29999999999995, 20%, 71.4%)" stroke-width="1.5"></path><path d="M1094.29 693.63L1094.29 693.63" stroke="hsl(228.29999999999995, 20%, 71.4%)" stroke-width="1.5"></path><path d="M1094.29 693.63L1272.75 700.15" stroke="hsl(228.29999999999995, 20%, 71.4%)" stroke-width="1.5"></path><path d="M1094.29 693.63L1151.36 513.22" stroke="hsl(228.29999999999995, 20%, 71.4%)" stroke-width="1.5"></path><path d="M1240.24 -93.4L1240.24 -93.4" stroke="hsl(228.29999999999995, 20%, 71.4%)" stroke-width="1.5"></path><path d="M1240.24 -93.4L1422.06 -98.71" stroke="hsl(228.29999999999995, 20%, 71.4%)" stroke-width="1.5"></path><path d="M1240.24 -93.4L1241.68 111.16" stroke="hsl(228.29999999999995, 20%, 71.4%)" stroke-width="1.5"></path><path d="M1240.24 -93.4L1405.72 93.75" stroke="hsl(228.29999999999995, 20%, 71.4%)" stroke-width="1.5"></path><path d="M1240.24 -93.4L1241.23 195.5" stroke="hsl(228.29999999999995, 20%, 71.4%)" stroke-width="1.5"></path><path d="M1241.68 111.16L1241.68 111.16" stroke="hsl(228.29999999999995, 20%, 71.4%)" stroke-width="1.5"></path><path d="M1241.68 111.16L1241.23 195.5" stroke="hsl(228.29999999999995, 20%, 71.4%)" stroke-width="1.5"></path><path d="M1241.68 111.16L1405.72 93.75" stroke="hsl(228.29999999999995, 20%, 71.4%)" stroke-width="1.5"></path><path d="M1241.68 111.16L1419.88 248.13" stroke="hsl(228.29999999999995, 20%, 71.4%)" stroke-width="1.5"></path><path d="M1241.23 195.5L1241.23 195.5" stroke="hsl(228.29999999999995, 20%, 71.4%)" stroke-width="1.5"></path><path d="M1241.23 195.5L1272.81 376.64" stroke="hsl(228.29999999999995, 20%, 71.4%)" stroke-width="1.5"></path><path d="M1241.23 195.5L1419.88 248.13" stroke="hsl(228.29999999999995, 20%, 71.4%)" stroke-width="1.5"></path><path d="M1241.23 195.5L1405.72 93.75" stroke="hsl(228.29999999999995, 20%, 71.4%)" stroke-width="1.5"></path><path d="M1272.81 376.64L1272.81 376.64" stroke="hsl(228.29999999999995, 20%, 71.4%)" stroke-width="1.5"></path><path d="M1272.81 376.64L1424.72 350.14" stroke="hsl(228.29999999999995, 20%, 71.4%)" stroke-width="1.5"></path><path d="M1272.81 376.64L1300.67 529.52" stroke="hsl(228.29999999999995, 20%, 71.4%)" stroke-width="1.5"></path><path d="M1272.81 376.64L1151.36 513.22" stroke="hsl(228.29999999999995, 20%, 71.4%)" stroke-width="1.5"></path><path d="M1300.67 529.52L1300.67 529.52" stroke="hsl(228.29999999999995, 20%, 71.4%)" stroke-width="1.5"></path><path d="M1300.67 529.52L1272.75 700.15" stroke="hsl(228.29999999999995, 20%, 71.4%)" stroke-width="1.5"></path><path d="M1272.75 700.15L1272.75 700.15" stroke="hsl(228.29999999999995, 20%, 71.4%)" stroke-width="1.5"></path><path d="M1272.75 700.15L1398.72 702.32" stroke="hsl(228.29999999999995, 20%, 71.4%)" stroke-width="1.5"></path><path d="M1272.75 700.15L1151.36 513.22" stroke="hsl(228.29999999999995, 20%, 71.4%)" stroke-width="1.5"></path><path d="M1422.06 -98.71L1422.06 -98.71" stroke="hsl(228.29999999999995, 20%, 71.4%)" stroke-width="1.5"></path><path d="M1422.06 -98.71L1568.92 -106.94" stroke="hsl(228.29999999999995, 20%, 71.4%)" stroke-width="1.5"></path><path d="M1422.06 -98.71L1405.72 93.75" stroke="hsl(228.29999999999995, 20%, 71.4%)" stroke-width="1.5"></path><path d="M1405.72 93.75L1405.72 93.75" stroke="hsl(228.29999999999995, 20%, 71.4%)" stroke-width="1.5"></path><path d="M1405.72 93.75L1419.88 248.13" stroke="hsl(228.29999999999995, 20%, 71.4%)" stroke-width="1.5"></path><path d="M1419.88 248.13L1419.88 248.13" stroke="hsl(228.29999999999995, 20%, 71.4%)" stroke-width="1.5"></path><path d="M1419.88 248.13L1424.72 350.14" stroke="hsl(228.29999999999995, 20%, 71.4%)" stroke-width="1.5"></path><path d="M1424.72 350.14L1424.72 350.14" stroke="hsl(228.29999999999995, 20%, 71.4%)" stroke-width="1.5"></path><path d="M1424.72 350.14L1300.67 529.52" stroke="hsl(228.29999999999995, 20%, 71.4%)" stroke-width="1.5"></path><path d="M1424.72 350.14L1241.23 195.5" stroke="hsl(228.29999999999995, 20%, 71.4%)" stroke-width="1.5"></path><path d="M1398.72 702.32L1398.72 702.32" stroke="hsl(228.29999999999995, 20%, 71.4%)" stroke-width="1.5"></path><path d="M1398.72 702.32L1300.67 529.52" stroke="hsl(228.29999999999995, 20%, 71.4%)" stroke-width="1.5"></path><path d="M1568.92 -106.94L1568.92 -106.94" stroke="hsl(228.29999999999995, 20%, 71.4%)" stroke-width="1.5"></path><path d="M1568.92 -106.94L1405.72 93.75" stroke="hsl(228.29999999999995, 20%, 71.4%)" stroke-width="1.5"></path><circle r="25" cx="38.47" cy="648.06" fill="url(#SvgjsRadialGradient1018)"></circle><circle r="25" cx="406.47" cy="648.35" fill="url(#SvgjsRadialGradient1018)"></circle><circle r="25" cx="1107.79" cy="400.32" fill="url(#SvgjsRadialGradient1018)"></circle><circle r="25" cx="1545.08" cy="58.14" fill="url(#SvgjsRadialGradient1018)"></circle><circle r="25" cx="1555.87" cy="258.85" fill="url(#SvgjsRadialGradient1018)"></circle><circle r="5" cx="-110.71" cy="503.31" fill="#babfd1"></circle><circle r="5" cx="-59.48" cy="673.53" fill="#babfd1"></circle><circle r="5" cx="96.65" cy="523.07" fill="#babfd1"></circle><circle r="5" cx="226.3" cy="515.99" fill="#babfd1"></circle><circle r="5" cx="237.67" cy="687.71" fill="#babfd1"></circle><circle r="5" cx="386.67" cy="490.05" fill="#babfd1"></circle><circle r="5" cx="543.07" cy="534.68" fill="#babfd1"></circle><circle r="5" cx="526.22" cy="669.08" fill="#babfd1"></circle><circle r="5" cx="692.48" cy="362.7" fill="#babfd1"></circle><circle r="5" cx="694.3" cy="489.86" fill="#babfd1"></circle><circle r="5" cx="673.04" cy="661.49" fill="#babfd1"></circle><circle r="5" cx="792.54" cy="344.05" fill="#babfd1"></circle><circle r="5" cx="848.29" cy="638.52" fill="#babfd1"></circle><circle r="5" cx="980.3" cy="397.88" fill="#babfd1"></circle><circle r="5" cx="989.13" cy="533.99" fill="#babfd1"></circle><circle r="5" cx="1008.76" cy="699.94" fill="#babfd1"></circle><circle r="5" cx="1087.6" cy="227.5" fill="#babfd1"></circle><circle r="5" cx="1151.36" cy="513.22" fill="#babfd1"></circle><circle r="5" cx="1094.29" cy="693.63" fill="#babfd1"></circle><circle r="5" cx="1240.24" cy="-93.4" fill="#babfd1"></circle><circle r="5" cx="1241.68" cy="111.16" fill="#babfd1"></circle><circle r="5" cx="1241.23" cy="195.5" fill="#babfd1"></circle><circle r="5" cx="1272.81" cy="376.64" fill="#babfd1"></circle><circle r="5" cx="1300.67" cy="529.52" fill="#babfd1"></circle><circle r="5" cx="1272.75" cy="700.15" fill="#babfd1"></circle><circle r="5" cx="1422.06" cy="-98.71" fill="#babfd1"></circle><circle r="5" cx="1405.72" cy="93.75" fill="#babfd1"></circle><circle r="5" cx="1419.88" cy="248.13" fill="#babfd1"></circle><circle r="5" cx="1424.72" cy="350.14" fill="#babfd1"></circle><circle r="5" cx="1398.72" cy="702.32" fill="#babfd1"></circle><circle r="5" cx="1568.92" cy="-106.94" fill="#babfd1"></circle></g><defs><mask id="SvgjsMask1017"><rect width="1440" height="560" fill="#ffffff"></rect></mask><radialGradient id="SvgjsRadialGradient1018"><stop stop-color="#ffffff" offset="0.1"></stop><stop stop-color="rgba(117, 126, 163, 1)" offset="0.2"></stop><stop stop-color="rgba(117, 126, 163, 0)" offset="1"></stop></radialGradient></defs></svg>