<svg xmlns="http://www.w3.org/2000/svg" version="1.1" xmlns:xlink="http://www.w3.org/1999/xlink" xmlns:svgjs="http://svgjs.com/svgjs" width="1440" height="560" preserveAspectRatio="none" viewBox="0 0 1440 560"><g mask="url(&quot;#SvgjsMask1652&quot;)" fill="none"><rect width="1440" height="560" x="0" y="0" fill="#0e2a47"></rect><path d="M38.71 -38.52L83.74 -12.52L83.74 39.48L38.71 65.48L-6.32 39.48L-6.32 -12.52zM83.74 39.48L128.78 65.48L128.78 117.48L83.74 143.48L38.71 117.48L38.71 65.48zM38.71 273.48L83.74 299.48L83.74 351.48L38.71 377.48L-6.32 351.48L-6.32 299.48zM83.74 507.48L128.78 533.48L128.78 585.48L83.74 611.48L38.71 585.48L38.71 533.48zM128.78 117.48L173.81 143.48L173.81 195.48L128.78 221.48L83.74 195.48L83.74 143.48zM173.81 507.48L218.85 533.48L218.85 585.48L173.81 611.48L128.78 585.48L128.78 533.48zM218.85 -38.52L263.88 -12.52L263.88 39.48L218.85 65.48L173.81 39.48L173.81 -12.52zM308.92 117.48L353.95 143.48L353.95 195.48L308.92 221.48L263.88 195.48L263.88 143.48zM308.92 273.48L353.95 299.48L353.95 351.48L308.92 377.48L263.88 351.48L263.88 299.48zM398.99 273.48L444.02 299.48L444.02 351.48L398.99 377.48L353.95 351.48L353.95 299.48zM444.02 507.48L489.06 533.48L489.06 585.48L444.02 611.48L398.99 585.48L398.99 533.48zM489.06 -38.52L534.09 -12.52L534.09 39.48L489.06 65.48L444.02 39.48L444.02 -12.52zM534.09 39.48L579.13 65.48L579.13 117.48L534.09 143.48L489.06 117.48L489.06 65.48zM489.06 273.48L534.09 299.48L534.09 351.48L489.06 377.48L444.02 351.48L444.02 299.48zM489.06 429.48L534.09 455.48L534.09 507.48L489.06 533.48L444.02 507.48L444.02 455.48zM579.13 -38.52L624.16 -12.52L624.16 39.48L579.13 65.48L534.09 39.48L534.09 -12.52zM579.13 429.48L624.16 455.48L624.16 507.48L579.13 533.48L534.09 507.48L534.09 455.48zM714.23 195.48L759.26 221.48L759.26 273.48L714.23 299.48L669.19 273.48L669.19 221.48zM714.23 507.48L759.26 533.48L759.26 585.48L714.23 611.48L669.19 585.48L669.19 533.48zM759.26 -38.52L804.3 -12.52L804.3 39.48L759.26 65.48L714.23 39.48L714.23 -12.52zM804.3 39.48L849.33 65.48L849.33 117.48L804.3 143.48L759.26 117.48L759.26 65.48zM759.26 117.48L804.3 143.48L804.3 195.48L759.26 221.48L714.23 195.48L714.23 143.48zM759.26 273.48L804.3 299.48L804.3 351.48L759.26 377.48L714.23 351.48L714.23 299.48zM804.3 351.48L849.33 377.48L849.33 429.48L804.3 455.48L759.26 429.48L759.26 377.48zM849.33 -38.52L894.37 -12.52L894.37 39.48L849.33 65.48L804.3 39.48L804.3 -12.52zM894.37 195.48L939.4 221.48L939.4 273.48L894.37 299.48L849.33 273.48L849.33 221.48zM894.37 507.48L939.4 533.48L939.4 585.48L894.37 611.48L849.33 585.48L849.33 533.48zM939.4 117.48L984.44 143.48L984.44 195.48L939.4 221.48L894.37 195.48L894.37 143.48zM939.4 273.48L984.44 299.48L984.44 351.48L939.4 377.48L894.37 351.48L894.37 299.48zM984.44 351.48L1029.47 377.48L1029.47 429.48L984.44 455.48L939.4 429.48L939.4 377.48zM939.4 429.48L984.44 455.48L984.44 507.48L939.4 533.48L894.37 507.48L894.37 455.48zM984.44 507.48L1029.47 533.48L1029.47 585.48L984.44 611.48L939.4 585.48L939.4 533.48zM1029.47 -38.52L1074.51 -12.52L1074.51 39.48L1029.47 65.48L984.44 39.48L984.44 -12.52zM1074.51 39.48L1119.54 65.48L1119.54 117.48L1074.51 143.48L1029.47 117.48L1029.47 65.48zM1029.47 117.48L1074.51 143.48L1074.51 195.48L1029.47 221.48L984.44 195.48L984.44 143.48zM1074.51 195.48L1119.54 221.48L1119.54 273.48L1074.51 299.48L1029.47 273.48L1029.47 221.48zM1074.51 507.48L1119.54 533.48L1119.54 585.48L1074.51 611.48L1029.47 585.48L1029.47 533.48zM1164.57 39.48L1209.61 65.48L1209.61 117.48L1164.57 143.48L1119.54 117.48L1119.54 65.48zM1119.54 117.48L1164.57 143.48L1164.57 195.48L1119.54 221.48L1074.51 195.48L1074.51 143.48zM1164.57 195.48L1209.61 221.48L1209.61 273.48L1164.57 299.48L1119.54 273.48L1119.54 221.48zM1164.57 351.48L1209.61 377.48L1209.61 429.48L1164.57 455.48L1119.54 429.48L1119.54 377.48zM1164.57 507.48L1209.61 533.48L1209.61 585.48L1164.57 611.48L1119.54 585.48L1119.54 533.48zM1254.64 39.48L1299.68 65.48L1299.68 117.48L1254.64 143.48L1209.61 117.48L1209.61 65.48zM1209.61 117.48L1254.64 143.48L1254.64 195.48L1209.61 221.48L1164.58 195.48L1164.58 143.48zM1209.61 273.48L1254.64 299.48L1254.64 351.48L1209.61 377.48L1164.58 351.48L1164.58 299.48zM1209.61 429.48L1254.64 455.48L1254.64 507.48L1209.61 533.48L1164.58 507.48L1164.58 455.48zM1344.71 39.48L1389.75 65.48L1389.75 117.48L1344.71 143.48L1299.68 117.48L1299.68 65.48zM1299.68 273.48L1344.71 299.48L1344.71 351.48L1299.68 377.48L1254.64 351.48L1254.64 299.48zM1389.75 -38.52L1434.78 -12.52L1434.78 39.48L1389.75 65.48L1344.71 39.48L1344.71 -12.52zM1434.78 195.48L1479.82 221.48L1479.82 273.48L1434.78 299.48L1389.75 273.48L1389.75 221.48zM1434.78 507.48L1479.82 533.48L1479.82 585.48L1434.78 611.48L1389.75 585.48L1389.75 533.48z" stroke="url(#SvgjsLinearGradient1653)" stroke-width="2"></path><path d="M126.19 269.81L186.82 304.81L186.82 374.81L126.19 409.81L65.57 374.81L65.57 304.81zM186.82 -45.19L247.44 -10.19L247.44 59.81L186.82 94.81L126.19 59.81L126.19 -10.19zM308.06 374.81L368.69 409.81L368.69 479.81L308.06 514.81L247.44 479.81L247.44 409.81zM429.31 374.81L489.93 409.81L489.93 479.81L429.31 514.81L368.69 479.81L368.69 409.81zM732.43 59.81L793.05 94.81L793.05 164.81L732.43 199.81L671.81 164.81L671.81 94.81zM671.81 374.81L732.43 409.81L732.43 479.81L671.81 514.81L611.18 479.81L611.18 409.81zM793.05 -45.19L853.68 -10.19L853.68 59.81L793.05 94.81L732.43 59.81L732.43 -10.19zM853.68 269.81L914.3 304.81L914.3 374.81L853.68 409.81L793.05 374.81L793.05 304.81zM974.92 479.81L1035.55 514.81L1035.55 584.81L974.92 619.81L914.3 584.81L914.3 514.81zM1096.17 269.81L1156.79 304.81L1156.79 374.81L1096.17 409.81L1035.55 374.81L1035.55 304.81zM1096.17 479.81L1156.79 514.81L1156.79 584.81L1096.17 619.81L1035.55 584.81L1035.55 514.81zM1156.79 374.81L1217.42 409.81L1217.42 479.81L1156.79 514.81L1096.17 479.81L1096.17 409.81zM1338.66 59.81L1399.29 94.81L1399.29 164.81L1338.66 199.81L1278.04 164.81L1278.04 94.81zM1278.04 374.81L1338.66 409.81L1338.66 479.81L1278.04 514.81L1217.42 479.81L1217.42 409.81zM1459.91 59.81L1520.53 94.81L1520.53 164.81L1459.91 199.81L1399.29 164.81L1399.29 94.81z" stroke="url(#SvgjsLinearGradient1654)" stroke-width="2"></path></g><defs><mask id="SvgjsMask1652"><rect width="1440" height="560" fill="#ffffff"></rect></mask><linearGradient x1="220.03199999999998" y1="-220.02399999999997" x2="1219.9679999999998" y2="780.024" gradientUnits="userSpaceOnUse" id="SvgjsLinearGradient1653"><stop stop-color="rgba(158, 0, 129, 1)" offset="0"></stop><stop stop-color="rgba(3, 48, 93, 1)" offset="0.29"></stop></linearGradient><linearGradient x1="220.03199999999998" y1="-220.02399999999997" x2="1219.9679999999998" y2="780.024" gradientUnits="userSpaceOnUse" id="SvgjsLinearGradient1654"><stop stop-color="#0e2a47" offset="0"></stop><stop stop-color="#00459e" offset="1"></stop></linearGradient></defs></svg>